<?xml version="1.0" encoding="UTF-8"?>
<svg version="1.1" xmlns="http://www.w3.org/2000/svg" width="32" height="32">
<path d="M0 0 C10.56 0 21.12 0 32 0 C32 10.56 32 21.12 32 32 C21.44 32 10.88 32 0 32 C0 21.44 0 10.88 0 0 Z " fill="#030303" transform="translate(0,0)"/>
<path d="M0 0 C1.62463842 -0.05395478 3.24978541 -0.09277195 4.875 -0.125 C6.23238281 -0.15980469 6.23238281 -0.15980469 7.6171875 -0.1953125 C10 0 10 0 12 2 C12.125 4.4375 12.125 4.4375 11 7 C8.44030111 8.37226746 5.77102317 9.16132632 3 10 C2.01 10.495 2.01 10.495 1 11 C1.33 9.35 1.66 7.7 2 6 C1.34 6 0.68 6 0 6 C-0.33 7.65 -0.66 9.3 -1 11 C-1.99 11.33 -2.98 11.66 -4 12 C-2.66666667 8 -1.33333333 4 0 0 Z " fill="#515151" transform="translate(12,10)"/>
<path d="M0 0 C1.62463842 -0.05395478 3.24978541 -0.09277195 4.875 -0.125 C5.77992187 -0.14820313 6.68484375 -0.17140625 7.6171875 -0.1953125 C10 0 10 0 12 2 C12.125 4.4375 12.125 4.4375 11 7 C8.44030111 8.37226746 5.77102317 9.16132632 3 10 C2.01 10.495 2.01 10.495 1 11 C1.33 9.68 1.66 8.36 2 7 C4.31 6.34 6.62 5.68 9 5 C9 4.34 9 3.68 9 3 C6.03 2.67 3.06 2.34 0 2 C0 1.34 0 0.68 0 0 Z " fill="#D9D9D9" transform="translate(12,10)"/>
<path d="M0 0 C2.05078125 0.03255208 4.1015625 0.06510417 6.15234375 0.09765625 C6.15234375 0.42765625 6.15234375 0.75765625 6.15234375 1.09765625 C4.76015625 1.15953125 4.76015625 1.15953125 3.33984375 1.22265625 C-0.13713263 1.78624656 -0.13713263 1.78624656 -1.72265625 5.16015625 C-2.09390625 6.12953125 -2.46515625 7.09890625 -2.84765625 8.09765625 C-3.50765625 8.09765625 -4.16765625 8.09765625 -4.84765625 8.09765625 C-2.67780446 0.14153301 -2.67780446 0.14153301 0 0 Z " fill="#DFDFDF" transform="translate(12.84765625,13.90234375)"/>
</svg>
